<svg width="383" height="74" viewBox="0 0 383 74" fill="none" xmlns="http://www.w3.org/2000/svg">
<path d="M94.85 55.5C89.1167 55.5 84.75 54.1 81.75 51.3C78.75 48.4667 77.25 44.4333 77.25 39.2C77.25 33.8 78.8 29.6333 81.9 26.7C85 23.7667 89.5333 22.3 95.5 22.3C97.5 22.3 99.3 22.4167 100.9 22.65C102.533 22.8833 104.067 23.2333 105.5 23.7V31.75C104.033 31.1833 102.517 30.8 100.95 30.6C99.3833 30.4 97.7833 30.3 96.15 30.3C93.05 30.3 90.7167 31 89.15 32.4C87.6167 33.8 86.85 36.0667 86.85 39.2C86.85 42.1333 87.5167 44.25 88.85 45.55C90.2167 46.85 92.2167 47.5 94.85 47.5C95.7167 47.5 96.5333 47.45 97.3 47.35C98.0667 47.2167 98.7833 47.05 99.45 46.85V42.15H93.05V36.35H107.3V52.55C106.067 53.3167 104.417 54 102.35 54.6C100.317 55.2 97.8167 55.5 94.85 55.5ZM110.818 55L123.168 22.8H133.118L145.468 55H135.668L132.968 48.15H123.268L120.618 55H110.818ZM124.518 41.4H131.718L128.118 31.95L124.518 41.4ZM149.977 55V22.8H159.127L167.127 39.15L175.077 22.8H184.177V55H174.777V38.9L169.627 49.5H164.577L159.377 38.9V55H149.977ZM189.697 55V22.8H214.097V30H199.097V35.25H212.247V42.55H199.097V47.8H214.097V55H189.697ZM219.34 55V22.8H233.49C236.957 22.8 239.473 23.7 241.04 25.5C242.64 27.3 243.44 29.7333 243.44 32.8C243.44 35.1667 242.857 37.1333 241.69 38.7C240.557 40.2667 238.857 41.3167 236.59 41.85C237.257 42.25 237.757 42.7167 238.09 43.25C238.457 43.75 238.823 44.4333 239.19 45.3L243.39 55H239.19L235.09 45.65C234.657 44.65 234.123 43.9333 233.49 43.5C232.89 43.0667 231.807 42.85 230.24 42.85H223.44V55H219.34ZM223.44 39.65H232.34C234.507 39.65 236.207 39.1167 237.44 38.05C238.707 36.95 239.34 35.2 239.34 32.8C239.34 28.3 237.19 26.05 232.89 26.05H223.44V39.65ZM263.536 55.5C258.502 55.5 254.769 54.1833 252.336 51.55C249.902 48.8833 248.686 44.6667 248.686 38.9C248.686 33.1333 249.902 28.9333 252.336 26.3C254.769 23.6333 258.502 22.3 263.536 22.3C268.602 22.3 272.336 23.6333 274.736 26.3C277.169 28.9333 278.386 33.1333 278.386 38.9C278.386 44.6667 277.169 48.8833 274.736 51.55C272.336 54.1833 268.602 55.5 263.536 55.5ZM263.536 52C265.969 52 267.969 51.5833 269.536 50.75C271.136 49.9167 272.319 48.55 273.086 46.65C273.886 44.7167 274.286 42.1333 274.286 38.9C274.286 35.6667 273.886 33.1 273.086 31.2C272.319 29.2667 271.136 27.8833 269.536 27.05C267.969 26.2167 265.969 25.8 263.536 25.8C261.102 25.8 259.086 26.2167 257.486 27.05C255.919 27.8833 254.736 29.2667 253.936 31.2C253.169 33.1 252.786 35.6667 252.786 38.9C252.786 42.1333 253.169 44.7167 253.936 46.65C254.736 48.55 255.919 49.9167 257.486 50.75C259.086 51.5833 261.102 52 263.536 52ZM285.402 55V22.8H289.102L307.452 48.7V22.8H311.552V55H307.802L289.502 29.15V55H285.402ZM317.58 55L328.93 39L317.73 22.8H322.43L331.38 35.95L340.33 22.8H345.03L333.83 39L345.18 55H340.43L331.38 42.15L322.33 55H317.58ZM360.939 55V43L349.439 22.8H353.689L362.989 39.5L372.289 22.8H376.539L365.039 43V55H360.939Z" fill="url(#paint0_linear_133_16)"/>
<path d="M28.8971 25.6357V24.1381C26.2482 23.3746 24.0809 21.9216 22.3953 19.7791C20.7096 17.6367 19.8668 15.1547 19.8668 12.3333C19.8668 8.92698 21.1009 6.01984 23.5692 3.61191C26.0375 1.20397 29.0175 0 32.5093 0C36.001 0 38.981 1.20397 41.4493 3.61191C43.9176 6.01984 45.1518 8.92698 45.1518 12.3333C45.1518 15.1524 44.3089 17.6343 42.6233 19.7791C40.9376 21.924 38.7703 23.377 36.1214 24.1381V25.6357L61.4064 39.819C62.5503 40.4651 63.4389 41.3319 64.0722 42.4196C64.7055 43.5073 65.021 44.696 65.0186 45.9857V52.681C65.0186 53.973 64.7031 55.1629 64.0722 56.2506C63.4413 57.3383 62.5527 58.2039 61.4064 58.8476L36.1214 73.031C34.9776 73.677 33.7735 74 32.5093 74C31.245 74 30.041 73.677 28.8971 73.031L3.61214 58.8476C2.4683 58.2016 1.58091 57.3359 0.949993 56.2506C0.319073 55.1652 0.00240809 53.9754 0 52.681V45.9857C0 44.6937 0.316664 43.505 0.949993 42.4196C1.58332 41.3343 2.47071 40.4674 3.61214 39.819L28.8971 25.6357ZM13.7261 42.2857L32.5093 52.8571L51.2924 42.2857L36.1214 33.7405V45.8095H28.8971V33.7405L13.7261 42.2857Z" fill="url(#paint1_linear_133_16)"/>
<defs>
<linearGradient id="paint0_linear_133_16" x1="365.132" y1="38.3111" x2="76" y2="38.3111" gradientUnits="userSpaceOnUse">
<stop stop-color="#ED6EA0"/>
<stop offset="1" stop-color="#EC8C69"/>
</linearGradient>
<linearGradient id="paint1_linear_133_16" x1="61.2344" y1="37.8222" x2="5.79265e-07" y2="37.8222" gradientUnits="userSpaceOnUse">
<stop stop-color="#ED6EA0"/>
<stop offset="1" stop-color="#EC8C69"/>
</linearGradient>
</defs>
</svg>
